<?xml version="1.0" encoding="UTF-8" standalone="no"?>
<!-- Created with Inkscape (http://www.inkscape.org/) -->

<svg
   xmlns:dc="http://purl.org/dc/elements/1.1/"
   xmlns:cc="http://creativecommons.org/ns#"
   xmlns:rdf="http://www.w3.org/1999/02/22-rdf-syntax-ns#"
   xmlns:svg="http://www.w3.org/2000/svg"
   xmlns="http://www.w3.org/2000/svg"
   xmlns:sodipodi="http://sodipodi.sourceforge.net/DTD/sodipodi-0.dtd"
   xmlns:inkscape="http://www.inkscape.org/namespaces/inkscape"
   width="210mm"
   height="297mm"
   viewBox="0 0 210 297"
   version="1.1"
   id="svg8"
   inkscape:version="0.92.4 (5da689c313, 2019-01-14)"
   sodipodi:docname="stunmeter.svg">
  <defs
     id="defs2" />
  <sodipodi:namedview
     id="base"
     pagecolor="#ffffff"
     bordercolor="#666666"
     borderopacity="1.0"
     inkscape:pageopacity="0.0"
     inkscape:pageshadow="2"
     inkscape:zoom="0.7"
     inkscape:cx="-51.229403"
     inkscape:cy="783.52434"
     inkscape:document-units="mm"
     inkscape:current-layer="layer1"
     showgrid="false"
     inkscape:snap-object-midpoints="true"
     inkscape:window-width="1920"
     inkscape:window-height="1137"
     inkscape:window-x="1672"
     inkscape:window-y="-8"
     inkscape:window-maximized="1" />
  <metadata
     id="metadata5">
    <rdf:RDF>
      <cc:Work
         rdf:about="">
        <dc:format>image/svg+xml</dc:format>
        <dc:type
           rdf:resource="http://purl.org/dc/dcmitype/StillImage" />
        <dc:title></dc:title>
      </cc:Work>
    </rdf:RDF>
  </metadata>
  <g
     inkscape:label="Layer 1"
     inkscape:groupmode="layer"
     id="layer1">
    <path
       style="fill:#000000;fill-opacity:1;stroke-width:0.99999994"
       d="M 168.57227 51.091797 A 131.42858 131.42858 0 0 0 37.142578 182.51953 A 131.42858 131.42858 0 0 0 168.57227 313.94922 A 131.42858 131.42858 0 0 0 300 182.51953 A 131.42858 131.42858 0 0 0 168.57227 51.091797 z M 168.57227 96.289062 A 86.230291 86.230291 0 0 1 254.80078 182.51953 A 86.230291 86.230291 0 0 1 168.57227 268.75 A 86.230291 86.230291 0 0 1 82.341797 182.51953 A 86.230291 86.230291 0 0 1 168.57227 96.289062 z "
       id="path10"
       transform="scale(0.26458333)"
       inkscape:export-xdpi="186.9911"
       inkscape:export-ydpi="186.9911" />
    <path
       style="fill:#ffffff;fill-opacity:1;stroke-width:0.29104164"
       d="M 44.601412,16.693038 A 31.598809,31.598809 0 0 0 13.002307,48.291627 31.598809,31.598809 0 0 0 44.601412,79.89073 31.598809,31.598809 0 0 0 76.199999,48.291627 31.598809,31.598809 0 0 0 44.601412,16.693038 Z m 0,8.783444 A 22.815098,22.815098 0 0 1 67.416557,48.291627 22.815098,22.815098 0 0 1 44.601412,71.10677 22.815098,22.815098 0 0 1 21.786267,48.291627 22.815098,22.815098 0 0 1 44.601412,25.476482 Z"
       id="path12"
       inkscape:connector-curvature="0"
       inkscape:export-xdpi="186.9911"
       inkscape:export-ydpi="186.9911" />
    <path
       style="fill:#000000;fill-opacity:1;stroke-width:0.1735931"
       d="M 44.601153,25.476739 A 22.815098,22.815098 0 0 0 21.786008,48.291884 22.815098,22.815098 0 0 0 44.601153,71.107029 22.815098,22.815098 0 0 0 67.416298,48.291884 22.815098,22.815098 0 0 0 44.601153,25.476739 Z m 0,3.119707 A 19.695381,19.695381 0 0 1 64.296591,48.291884 19.695381,19.695381 0 0 1 44.601153,67.987322 19.695381,19.695381 0 0 1 24.905715,48.291884 19.695381,19.695381 0 0 1 44.601153,28.596446 Z"
       id="path10-1-9"
       inkscape:connector-curvature="0"
       inkscape:export-xdpi="186.9911"
       inkscape:export-ydpi="186.9911" />
  </g>
</svg>
